<svg xmlns="http://www.w3.org/2000/svg" viewBox="0 0 16 16" id="Redhat--Streamline-Font-Awesome" height="16" width="16">
  <desc>
    Redhat Streamline Icon: https://streamlinehq.com
  </desc>
<!--! Font Awesome Free 6.5.2 by @fontawesome - https://fontawesome.com License - https://fontawesome.com/license/free (Icons: CC BY 4.0, Fonts: SIL OFL 1.1, Code: MIT License) Copyright 2024 Fonticons, Inc.-->
  <path d="M10.6725 8.92375c1.0515625 0 2.573125 -0.216875 2.573125 -1.46875 0.006875 -0.210625 0.026875 -0.056875 -0.6525 -3.0075 -0.144375 -0.5984375 -0.27125 -0.87 -1.3221875 -1.3953125 -0.8153125 -0.416875 -2.59125 -1.1053125 -3.1165625 -1.1053125 -0.489375 0 -0.63125 0.6303125 -1.2146875 0.6303125 -0.5625 0 -0.9784375 -0.470625 -1.50375 -0.470625 -0.504375 0 -0.833125 0.34375 -1.086875 1.050625 -0.859375 2.4234375 -0.82125 2.3209375 -0.81625 2.4459375 0 0.775 3.05125 3.3159375 7.1396875 3.3159375M13.40625 7.96375c0.1453125 0.6875 0.1453125 0.7609375 0.1453125 0.8515625 0 1.176875 -1.3228125 1.83 -3.0625 1.83 -3.929375 0.0025 -7.3721875 -2.3015625 -7.3721875 -3.8228125a1.5484375 1.5484375 0 0 1 0.126875 -0.61625C1.83 6.276875 0 6.5290625 0 8.1446875c0 2.6459375 6.2696875 5.90625 11.2340625 5.90625 3.8059375 0 4.7659375 -1.72125 4.7659375 -3.080625 0 -1.0690625 -0.9246875 -2.2828125 -2.5915625 -3.0075" fill="#000000" stroke-width="0.0313"></path>
</svg>